PathFileType	4	(X/Y/Z)	RBDS015\RBDS015runT25.trc
DataRate	CameraRate	NumFrames	NumMarkers	Units	OrigDataRate	OrigDataStartFrame	OrigNumFrames
150.000000	150.000000	6	33	mm	150.000000	2812	4500
Frame#	Time	L.ASIS			L.Heel.Bottom			L.Heel.Lateral			L.Heel.Top			L.Iliac.Crest			L.MT1			L.MT5			L.PSIS			L.Shank.Bottom.Lateral			L.Shank.Bottom.Medial			L.Shank.Top.Lateral			L.Shank.Top.Medial			L.Thigh.Bottom.Lateral			L.Thigh.Bottom.Medial			L.Thigh.Top.Lateral			L.Thigh.Top.Medial			R.ASIS			R.ASY			R.Heel.Bottom			R.Heel.Lateral			R.Heel.Top			R.Iliac.Crest			R.MT1			R.MT5			R.PSIS			R.Shank.Bottom.Lateral			R.Shank.Bottom.Medial			R.Shank.Top.Lateral			R.Shank.Top.Medial			R.Thigh.Bottom.Lateral			R.Thigh.Bottom.Medial			R.Thigh.Top.Lateral			R.Thigh.Top.Medial			
		X1	Y1	Z1	X2	Y2	Z2	X3	Y3	Z3	X4	Y4	Z4	X5	Y5	Z5	X6	Y6	Z6	X7	Y7	Z7	X8	Y8	Z8	X9	Y9	Z9	X10	Y10	Z10	X11	Y11	Z11	X12	Y12	Z12	X13	Y13	Z13	X14	Y14	Z14	X15	Y15	Z15	X16	Y16	Z16	X17	Y17	Z17	X18	Y18	Z18	X19	Y19	Z19	X20	Y20	Z20	X21	Y21	Z21	X22	Y22	Z22	X23	Y23	Z23	X24	Y24	Z24	X25	Y25	Z25	X26	Y26	Z26	X27	Y27	Z27	X28	Y28	Z28	X29	Y29	Z29	X30	Y30	Z30	X31	Y31	Z31	X32	Y32	Z32	X33	Y33	Z33	

2813	18.74666666666667	2230.54897366582	1058.145357198584	948.8264838544434	1540.556128672633	323.3958991746154	981.9941976281973	1561.090638024262	308.4617125632862	937.4655707204309	1581.923876602082	330.971288073065	978.7611330029542	2181.369855740551	1158.903030607249	901.5559108732692	1635.238395267753	134.4701398082516	1003.712077435893	1599.889197689317	160.3757560225826	898.262028533558	2050.289047022964	1120.512817231466	1000.921414655692	1700.700756511361	348.9311143139665	914.4165437813124	1671.772674372485	381.4357793566693	940.9743398609065	1759.556338716161	404.019722330113	904.9294780992728	1732.773635692901	439.7576966676157	933.3100234069761	2048.798926387119	685.5995964917939	894.9076586429578	1987.466222551723	702.9581686516508	919.9918974158243	2074.504938841679	792.4946571577661	882.7744558520982	2010.524444838241	810.1209033218096	911.5981704954836	2217.738059328576	1058.761149596362	1168.180387057263	2429.31975587935	110.4187065692252	1118.549198693506	2261.679051726892	30.41995508501861	1073.846029666939	2279.559806773097	46.95624156789574	1121.265033836782	2262.525789905247	76.44816927729673	1082.07294373277	2139.473961977337	1161.013639844167	1209.715984584613	2469.442862408148	80.63067048809857	1069.849174907487	2420.463765670136	45.95194114982715	1171.530149648401	2043.148595183153	1121.296007809772	1096.817084875801	2294.123689840643	196.4535693482618	1150.120420460485	2252.678280936406	191.1782364463668	1113.309330275264	2272.115708084164	273.7953180509435	1162.508276982697	2232.141104058624	268.2896815852836	1125.785283401491	2202.312270377148	699.527413510883	1204.966591904154	2149.261006747198	680.8941771753725	1158.763343493074	2155.215916511686	798.3209158313895	1215.112835066072	2104.635259941838	780.8784539920853	1171.659710643151	
2814	18.75333333333333	2230.952866958387	1054.443579092313	949.0041931889612	1538.799002851196	331.4544771703499	980.9564958049172	1559.00830990298	316.4120043205211	936.299544430842	1580.304940342262	338.1457289180615	977.7814665463904	2180.761029494362	1154.424947492162	901.5972736364447	1629.89322594857	140.7903932391372	1001.650325182814	1595.061551315536	167.9157318805551	896.27326789646	2049.983608133288	1114.803650338672	1001.196876167472	1699.968544100511	352.7662578123791	913.4119818212646	1672.223357342122	386.2478597073742	940.0750782756525	1760.708678127696	405.9280008014306	904.0657248423768	1735.25181452629	442.4901227081823	932.6298327402679	2054.255599583676	679.4929419396913	894.348215948559	1992.512940832007	695.846594857022	919.1469126751794	2078.307099030888	786.806215679642	882.5021402553867	2013.978643211912	803.3674953450831	911.1866894593743	2217.277318620718	1054.83106875091	1168.694832425523	2420.811145309947	105.633665168424	1115.613067072405	2251.077711187801	29.54140165007723	1072.288655718785	2269.296337995439	46.71405609271191	1119.332816149149	2253.419128843095	75.6588474497193	1079.302184754417	2137.827316670584	1155.243972714715	1210.222722920973	2460.312022597901	73.60523267972974	1067.941235915359	2410.027823424975	43.41276085819377	1170.404628494828	2042.526623453624	1115.586314664283	1096.864101004629	2289.196399647298	193.1634883042108	1148.125559671944	2247.035746166883	189.3220977625351	1112.158914129387	2269.470664214683	270.8445809338061	1161.436483805775	2228.854587697727	266.7518114159371	1125.415536097713	2205.311120298183	696.7799999671603	1205.076027440946	2151.987343469834	677.3683122276186	1159.493512949521	2157.246355919188	795.0197414318019	1215.381662107167	2106.43755222658	776.9189839728551	1172.378683535971	
2815	18.76	2231.165261193255	1050.371401737288	949.1580503546179	1538.154065839205	339.4192823283345	979.8196787120989	1558.123499615381	324.2614045489381	935.0704531832997	1579.794560845427	345.2090204856637	976.7601679216342	2180.007563490953	1149.388943899715	901.550667078742	1625.410193440669	146.9781447355337	999.5293633097136	1591.328779909969	175.3991530072811	894.2035554996468	2049.505760251939	1108.511288898514	1001.379456730087	1700.253783572531	356.3539421814449	912.3721389196793	1673.694767695474	390.7657999848819	939.1172696263233	1762.796795898861	407.509582820448	903.1896683286595	1738.656742282153	444.8563366089607	931.9059156791216	2059.87059945695	673.0290662419319	893.7547403571682	1997.775614316118	688.2699621191608	918.4109505170023	2082.07731001414	780.7749623220527	882.1887513831797	2017.47378715363	796.1635259340071	910.907767815533	2216.621620237675	1050.645216472106	1169.145114713108	2410.414977380588	100.9170819598748	1112.395398516526	2238.472147899505	28.94648927128662	1070.694084423024	2257.072263531856	46.83191589312822	1117.301969389877	2242.399062311136	75.14994606235497	1076.382677681733	2136.103009667331	1148.922364664197	1210.588182478677	2449.246745659209	66.63803160401262	1065.888328665814	2397.624627242848	41.23617139686415	1169.203777033338	2041.636185468328	1109.413223674686	1096.765857092929	2283.159947693527	190.1002522268836	1145.949978709752	2240.161130420652	187.9609372637763	1111.041114119975	2266.197139484114	268.1407326021861	1160.285764640671	2224.813575410906	265.7117646854351	1125.172887814349	2208.476513860764	693.9707659730436	1205.388503070808	2155.001691756443	673.7046584892214	1160.327749681856	2159.310009365992	791.5799320213428	1215.76613381503	2108.322798457922	772.7311032818803	1173.18429839165	
2816	18.76666666666667	2231.166212029239	1045.94616745576	949.3186794557763	1538.671085078753	347.2344684879483	978.5998690559918	1558.485178347594	331.9551073692273	933.796763810427	1580.441548503179	352.1211561584186	975.7146799820576	2179.13009947226	1143.772628853993	901.4302662546244	1621.89305073373	152.9943141963389	997.3762189217031	1588.797816792007	182.768320541695	892.0804236054256	2048.856026442278	1101.724743714886	1001.436836781243	1701.621208686193	359.6812992023902	911.3175813198915	1676.241149110041	394.9782802785799	938.109225372454	1765.871234150497	408.7626011859306	902.3125242075275	1743.02709692267	446.8598516403955	931.1342580764656	2065.610317254544	666.3114200181121	893.150096132313	2003.232280325419	680.3454770426406	917.8145792582775	2085.804123484496	774.489161981208	881.8499554978855	2021.001301048924	788.61284522295	910.7682009950156	2215.776283980164	1046.273208623	1169.547489386639	2398.401458846272	96.53647224129827	1109.07667624964	2224.286135289784	28.65015628333691	1069.145833836195	2243.287231458805	47.28307244761884	1115.280823004461	2229.798240423973	74.92658824257168	1073.473314263763	2134.336971058357	1142.106196650651	1210.82723417465	2436.564255552622	60.16382099139751	1063.819420033701	2383.653078039542	39.54297426732651	1167.994040418915	2040.475725392633	1102.878668462065	1096.490885259504	2276.154497039182	187.4093012493109	1143.711901269297	2232.242307487922	187.1827779399089	1110.035098690761	2262.341151133589	265.7928791474126	1159.121045730366	2220.110888157189	265.2193216877578	1125.088447152292	2211.664814221397	691.1216770840607	1205.912913713959	2158.179577284744	669.9682877995592	1161.23357301436	2161.310435801729	788.0506763927003	1216.259788384572	2110.215181111395	768.3986566059871	1174.03909552572	
2817	18.77333333333333	2230.938798327304	1041.185379295675	949.5074571518057	1540.363070625686	354.8294728563386	977.3084366614487	1560.107447281792	339.4261545710981	932.4922233373371	1582.256675123353	358.8330350819602	974.6571990547972	2178.140508083354	1137.564085906045	901.2546703437532	1619.454919643657	158.8058508552823	995.2262009768141	1587.572179481268	189.9564510718722	889.937705454018	2048.038026289802	1094.559808191216	1001.34273178602	1704.110800341211	362.7421561559474	910.2707904272545	1679.895017971205	398.8837405140051	937.0631574799025	1769.962156145748	409.6947531068642	901.445983041639	1748.384922780931	448.5159771281008	930.3138410967412	2071.454375924305	659.44465033668	892.5595279857749	2008.869593578099	672.1914397814547	917.381721709069	2089.487707854658	768.0388884003221	881.5041868819318	2024.558917956522	780.8204929919278	910.7666395894623	2214.751148858118	1041.788181646003	1169.925029976048	2385.060274523539	92.69918707894256	1105.854015279357	2208.942222320129	28.64355957095364	1067.725347822187	2228.339959918812	48.01081062719555	1113.379283774468	2215.958255495299	74.97260980660302	1070.734181390158	2132.544224330826	1134.87328314566	1210.961146917521	2422.597376742738	54.53093869250601	1061.871078960963	2368.511571423091	38.38045274329718	1166.850113188003	2039.062198945256	1096.102872894263	1096.014173443455	2268.293190989368	185.1857945195677	1141.546102523617	2223.45292527516	187.0181822540887	1109.213936335211	2257.904662834111	263.8632233586458	1158.020142836468	2214.807213379212	265.2707897610445	1125.184015506827	2214.70888313652	688.2473826169337	1206.633093907106	2161.35539487236	666.2217082325533	1162.170632954016	2163.139551574468	784.4822123795619	1216.843178392589	2112.020382688186	764.014471915062	1174.89714153093	
2818	18.78	2230.472163234806	1036.107033648393	949.7310165299965	1543.209534641364	362.1229740822317	975.9509168935047	1562.97281468725	346.5975739731855	931.1650339816707	1585.216595957422	365.2877966238523	973.5933138876819	2177.038347533853	1130.774246112884	901.0448997632336	1618.209486843647	164.3826696754867	993.1228032933656	1587.743987426551	196.8869805722788	887.8156129791213	2047.060587278473	1087.158810388583	1001.080018189779	1707.736775211673	365.5346219893906	909.2544314146103	1684.664850066256	402.4861548109424	935.9937404838587	1775.077472756012	410.3215320157624	900.6018137314494	1754.732388680649	449.8483154661519	929.4467703271083	2077.395164782209	652.5320997047687	892.0081008340987	2014.682646025182	663.9242375247561	917.1280696682367	2093.138470412723	761.5140071793033	881.1702264488808	2028.150704471276	772.8900121762726	910.8940545432491	2213.562442328465	1037.262432720074	1170.303538527048	2370.680615842208	89.5349358112111	1102.916561634617	2192.829320786087	28.89418943580523	1066.502738336616	2212.598150976075	48.93540530206884	1111.69624057166	2201.203939051782	75.2515131069411	1068.307922248916	2130.720047394262	1127.326275149712	1211.013727902132	2407.669588034124	49.96697686073193	1060.169189788503	2352.568469357594	37.72543476203521	1165.845871340781	2037.432435636571	1089.222928483761	1095.321234099461	2259.653528441227	183.4627931271293	1139.587119622986	2213.938148292088	187.4332300829784	1108.633044309843	2252.845085327942	262.3580099988957	1157.063266832193	2208.924953562787	265.8054277961483	1125.466793518656	2217.425188222282	685.3536690364407	1207.512243315383	2164.329592709118	662.5203038997513	1163.096664851269	2164.682227279366	780.9223879235612	1217.488164894394	2113.628324887395	759.6745176432975	1175.710564868108	
